<?xml version='1.0' encoding='UTF-8'?>
<svg xmlns="http://www.w3.org/2000/svg" xmlns:xlink="http://www.w3.org/1999/xlink" width="84" height="72" viewBox="213 0 84 72" role="img" aria-label="WUWU">
  <title>WUWU</title>
  <defs/>
  <svg x="8" y="17.5" width="188.93617021276597" height="37.0" viewBox="207.0 362.88 172.8 33.84" preserveAspectRatio="none" overflow="hidden"><defs>
<g>
<g id="k_glyph-0-0">
<path d="M 0.90625 0 L 5.40625 0 L 5.40625 -0.875 L 1.953125 -0.875 L 1.953125 -8.078125 L 0.90625 -8.078125 Z M 0.90625 0 "/>
</g>
<g id="k_glyph-0-1">
<path d="M 4.1875 -8.203125 C 2.03125 -8.203125 0.4375 -6.53125 0.4375 -3.96875 C 0.4375 -1.515625 1.921875 0.125 4.0625 0.125 C 6.125 0.125 7.8125 -1.34375 7.8125 -4.125 C 7.8125 -6.515625 6.390625 -8.203125 4.1875 -8.203125 Z M 4.140625 -7.359375 C 5.875 -7.359375 6.71875 -5.6875 6.71875 -4.078125 C 6.71875 -2.234375 5.78125 -0.71875 4.125 -0.71875 C 2.484375 -0.71875 1.546875 -2.265625 1.546875 -3.984375 C 1.546875 -5.765625 2.40625 -7.359375 4.140625 -7.359375 Z M 4.140625 -7.359375 "/>
</g>
<g id="k_glyph-0-2">
<path d="M 7.0625 -4.25 L 4.390625 -4.25 L 4.390625 -3.40625 L 6.046875 -3.40625 L 6.046875 -1 C 5.796875 -0.875 5.328125 -0.78125 4.65625 -0.78125 C 2.765625 -0.78125 1.53125 -1.984375 1.53125 -4.03125 C 1.53125 -6.0625 2.8125 -7.28125 4.78125 -7.28125 C 5.59375 -7.28125 6.140625 -7.125 6.5625 -6.9375 L 6.8125 -7.796875 C 6.46875 -7.953125 5.734375 -8.15625 4.8125 -8.15625 C 2.09375 -8.15625 0.4375 -6.40625 0.4375 -3.984375 C 0.4375 -2.734375 0.859375 -1.65625 1.5625 -0.984375 C 2.34375 -0.234375 3.359375 0.078125 4.578125 0.078125 C 5.671875 0.078125 6.59375 -0.1875 7.0625 -0.359375 Z M 7.0625 -4.25 "/>
</g>
<g id="k_glyph-0-3">
</g>
<g id="k_glyph-0-4">
<path d="M 0.90625 0 L 1.953125 0 L 1.953125 -3.234375 C 2.1875 -3.171875 2.484375 -3.15625 2.796875 -3.15625 C 3.8125 -3.15625 4.703125 -3.46875 5.265625 -4.046875 C 5.671875 -4.46875 5.890625 -5.046875 5.890625 -5.78125 C 5.890625 -6.5 5.625 -7.078125 5.171875 -7.46875 C 4.703125 -7.890625 3.9375 -8.140625 2.90625 -8.140625 C 2.078125 -8.140625 1.421875 -8.0625 0.90625 -7.984375 Z M 1.953125 -7.21875 C 2.140625 -7.28125 2.484375 -7.3125 2.9375 -7.3125 C 4.09375 -7.3125 4.84375 -6.796875 4.84375 -5.734375 C 4.84375 -4.609375 4.078125 -4 2.8125 -4 C 2.46875 -4 2.1875 -4.03125 1.953125 -4.09375 Z M 1.953125 -7.21875 "/>
</g>
<g id="k_glyph-0-5">
<path d="M 0.90625 0 L 1.953125 0 L 1.953125 -3.5 L 2.9375 -3.5 C 3.890625 -3.46875 4.3125 -3.046875 4.546875 -1.921875 C 4.78125 -0.921875 4.96875 -0.234375 5.09375 0 L 6.171875 0 C 6 -0.3125 5.8125 -1.09375 5.546875 -2.21875 C 5.359375 -3.0625 4.984375 -3.625 4.359375 -3.84375 L 4.359375 -3.890625 C 5.21875 -4.171875 5.890625 -4.875 5.890625 -5.9375 C 5.890625 -6.5625 5.65625 -7.125 5.25 -7.484375 C 4.75 -7.9375 4.03125 -8.140625 2.90625 -8.140625 C 2.1875 -8.140625 1.4375 -8.078125 0.90625 -7.96875 Z M 1.953125 -7.234375 C 2.125 -7.28125 2.484375 -7.328125 2.984375 -7.328125 C 4.09375 -7.328125 4.84375 -6.859375 4.84375 -5.828125 C 4.84375 -4.90625 4.140625 -4.296875 3.015625 -4.296875 L 1.953125 -4.296875 Z M 1.953125 -7.234375 "/>
</g>
<g id="k_glyph-0-6">
<path d="M 0.90625 -8.078125 L 0.90625 0 L 1.953125 0 L 1.953125 -8.078125 Z M 0.90625 -8.078125 "/>
</g>
<g id="k_glyph-0-7">
<path d="M 7.921875 0 L 8.9375 0 L 8.4375 -8.078125 L 7.109375 -8.078125 L 5.671875 -4.171875 C 5.3125 -3.15625 5.015625 -2.265625 4.8125 -1.453125 L 4.78125 -1.453125 C 4.578125 -2.28125 4.296875 -3.171875 3.96875 -4.171875 L 2.59375 -8.078125 L 1.265625 -8.078125 L 0.6875 0 L 1.6875 0 L 1.90625 -3.46875 C 1.984375 -4.671875 2.03125 -6.03125 2.0625 -7.03125 L 2.078125 -7.03125 C 2.3125 -6.078125 2.640625 -5.03125 3.015625 -3.890625 L 4.328125 -0.046875 L 5.125 -0.046875 L 6.546875 -3.96875 C 6.953125 -5.078125 7.28125 -6.09375 7.5625 -7.03125 L 7.59375 -7.03125 C 7.59375 -6.03125 7.65625 -4.671875 7.71875 -3.546875 Z M 7.921875 0 "/>
</g>
<g id="k_glyph-0-8">
<path d="M 5.078125 -2.546875 L 5.9375 0 L 7.0625 0 L 4.296875 -8.078125 L 3.046875 -8.078125 L 0.296875 0 L 1.375 0 L 2.21875 -2.546875 Z M 2.4375 -3.359375 L 3.21875 -5.6875 C 3.375 -6.1875 3.515625 -6.671875 3.625 -7.15625 L 3.65625 -7.15625 C 3.78125 -6.6875 3.890625 -6.203125 4.078125 -5.6875 L 4.859375 -3.359375 Z M 4.171875 -9.90625 L 3.0625 -8.515625 L 3.921875 -8.515625 L 5.4375 -9.90625 Z M 4.171875 -9.90625 "/>
</g>
<g id="k_glyph-0-9">
<path d="M 0.5 -0.390625 C 0.9375 -0.109375 1.78125 0.125 2.5625 0.125 C 4.46875 0.125 5.390625 -0.953125 5.390625 -2.203125 C 5.390625 -3.390625 4.703125 -4.046875 3.328125 -4.578125 C 2.21875 -5.015625 1.71875 -5.375 1.71875 -6.140625 C 1.71875 -6.6875 2.140625 -7.34375 3.25 -7.34375 C 3.984375 -7.34375 4.515625 -7.109375 4.78125 -6.96875 L 5.0625 -7.8125 C 4.703125 -8.015625 4.109375 -8.203125 3.28125 -8.203125 C 1.71875 -8.203125 0.671875 -7.28125 0.671875 -6.015625 C 0.671875 -4.875 1.484375 -4.1875 2.796875 -3.734375 C 3.890625 -3.3125 4.328125 -2.875 4.328125 -2.125 C 4.328125 -1.3125 3.703125 -0.75 2.640625 -0.75 C 1.921875 -0.75 1.234375 -0.984375 0.765625 -1.265625 Z M 0.5 -0.390625 "/>
</g>
<g id="k_glyph-0-10">
<path d="M 5.09375 -4.65625 L 1.953125 -4.65625 L 1.953125 -7.203125 L 5.265625 -7.203125 L 5.265625 -8.078125 L 0.90625 -8.078125 L 0.90625 0 L 5.453125 0 L 5.453125 -0.875 L 1.953125 -0.875 L 1.953125 -3.78125 L 5.09375 -3.78125 Z M 5.09375 -4.65625 "/>
</g>
<g id="k_glyph-0-11">
<path d="M 6.34375 -1.09375 C 5.921875 -0.890625 5.265625 -0.75 4.640625 -0.75 C 2.671875 -0.75 1.53125 -2.03125 1.53125 -4 C 1.53125 -6.125 2.796875 -7.328125 4.6875 -7.328125 C 5.359375 -7.328125 5.921875 -7.1875 6.3125 -7 L 6.5625 -7.84375 C 6.296875 -8 5.65625 -8.203125 4.65625 -8.203125 C 2.140625 -8.203125 0.4375 -6.5 0.4375 -3.96875 C 0.4375 -1.3125 2.140625 0.125 4.421875 0.125 C 5.40625 0.125 6.171875 -0.078125 6.5625 -0.265625 Z M 6.34375 -1.09375 "/>
</g>
<g id="k_glyph-0-12">
<path d="M 0.90625 -8.078125 L 0.90625 -3.3125 C 0.90625 -0.8125 2.140625 0.125 3.796875 0.125 C 5.546875 0.125 6.859375 -0.890625 6.859375 -3.375 L 6.859375 -8.078125 L 5.796875 -8.078125 L 5.796875 -3.296875 C 5.796875 -1.515625 5.03125 -0.71875 3.828125 -0.71875 C 2.75 -0.71875 1.953125 -1.484375 1.953125 -3.296875 L 1.953125 -8.078125 Z M 0.90625 -8.078125 "/>
</g>
<g id="k_glyph-0-13">
<path d="M 1.890625 0 L 1.890625 -3.453125 C 1.890625 -4.796875 1.875 -5.765625 1.8125 -6.78125 L 1.84375 -6.796875 C 2.25 -5.921875 2.796875 -5 3.359375 -4.09375 L 5.921875 0 L 6.96875 0 L 6.96875 -8.078125 L 5.984375 -8.078125 L 5.984375 -4.703125 C 5.984375 -3.4375 6.015625 -2.453125 6.109375 -1.375 L 6.09375 -1.359375 C 5.703125 -2.1875 5.234375 -3.046875 4.640625 -3.984375 L 2.046875 -8.078125 L 0.90625 -8.078125 L 0.90625 0 Z M 1.890625 0 "/>
</g>
<g id="k_glyph-0-14">
<path d="M 0.90625 -0.03125 C 1.4375 0.03125 2.0625 0.078125 2.796875 0.078125 C 4.375 0.078125 5.625 -0.328125 6.375 -1.09375 C 7.125 -1.828125 7.53125 -2.90625 7.53125 -4.234375 C 7.53125 -5.53125 7.125 -6.46875 6.40625 -7.125 C 5.6875 -7.796875 4.625 -8.140625 3.125 -8.140625 C 2.296875 -8.140625 1.546875 -8.0625 0.90625 -7.96875 Z M 1.953125 -7.203125 C 2.234375 -7.265625 2.640625 -7.3125 3.171875 -7.3125 C 5.375 -7.3125 6.453125 -6.09375 6.453125 -4.1875 C 6.453125 -2.015625 5.234375 -0.765625 3.015625 -0.765625 C 2.59375 -0.765625 2.21875 -0.78125 1.953125 -0.828125 Z M 1.953125 -7.203125 "/>
</g>
<g id="k_glyph-0-15">
<path d="M 5.078125 -2.546875 L 5.9375 0 L 7.0625 0 L 4.296875 -8.078125 L 3.046875 -8.078125 L 0.296875 0 L 1.375 0 L 2.21875 -2.546875 Z M 2.4375 -3.359375 L 3.21875 -5.6875 C 3.375 -6.1875 3.515625 -6.671875 3.625 -7.15625 L 3.65625 -7.15625 C 3.78125 -6.6875 3.890625 -6.203125 4.078125 -5.6875 L 4.859375 -3.359375 Z M 2.4375 -3.359375 "/>
</g>
</g>
</defs>
<path fill-rule="nonzero" fill="rgb(0%, 0%, 0%)" fill-opacity="1" d="M 239.417969 656.371094 L 227.953125 657.820312 C 227.953125 657.820312 245.9375 630.660156 278.652344 629.210938 C 278.652344 629.210938 296.160156 627.640625 314.992188 636.574219 C 314.992188 636.574219 269.722656 615.8125 234.230469 654.441406 Z M 239.417969 656.371094 "/>
<path fill-rule="nonzero" fill="rgb(0%, 0%, 0%)" fill-opacity="1" d="M 373.179688 650.753906 L 368.347656 650.753906 C 368.347656 650.753906 343.238281 607.777344 284.085938 613.449219 C 284.085938 613.449219 230.125 617.6875 215.035156 664.824219 C 215.035156 664.824219 227.226562 609.464844 300.140625 609.347656 C 300.140625 609.347656 350.84375 608.621094 373.179688 650.753906 "/>
<path fill-rule="nonzero" fill="rgb(92.89856%, 11.799622%, 14.099121%)" fill-opacity="1" d="M 332.40625 623.890625 C 332.40625 623.890625 353.234375 630.5625 369.558594 657.480469 C 369.558594 657.480469 342.910156 648.429688 338.199219 647.582031 C 333.492188 646.738281 341.636719 646.988281 320.90625 635.878906 "/>
<path fill-rule="nonzero" fill="rgb(92.89856%, 11.799622%, 14.099121%)" fill-opacity="1" d="M 314.992188 632.738281 C 314.992188 632.738281 302.679688 628.390625 296.761719 628.152344 L 300.867188 615.71875 C 300.867188 615.71875 318.917969 617.734375 326.457031 621.632812 Z M 314.992188 632.738281 "/>
<path fill-rule="nonzero" fill="rgb(92.89856%, 11.799622%, 14.099121%)" fill-opacity="1" d="M 294.5625 615.320312 L 291.085938 627.546875 C 291.085938 627.546875 285.898438 626.703125 273.101562 627.546875 L 272.015625 618.328125 C 272.015625 618.328125 279.675781 615.320312 294.5625 615.320312 "/>
<path fill-rule="nonzero" fill="rgb(98.799133%, 82.699585%, 2.69928%)" fill-opacity="1" d="M 265.628906 620.058594 L 267.546875 628.875 C 267.546875 628.875 261.269531 629.542969 251.371094 634.160156 L 247.265625 628.273438 C 247.265625 628.273438 255.015625 622.609375 265.628906 620.058594 "/>
<path fill-rule="nonzero" fill="rgb(98.799133%, 82.398987%, 4.299927%)" fill-opacity="1" d="M 242.800781 632.027344 L 246.300781 637.214844 C 246.300781 637.214844 239.058594 640.359375 234.351562 646.386719 L 229.640625 643.84375 C 229.640625 643.84375 233.382812 637.71875 242.800781 632.027344 "/>
<path fill-rule="nonzero" fill="rgb(98.799133%, 82.398987%, 4.299927%)" fill-opacity="1" d="M 227.105469 648.191406 L 229.640625 650 C 229.640625 650 225.539062 654.839844 222.035156 661.898438 L 219.984375 661.898438 C 219.984375 661.898438 222.929688 654.726562 227.105469 648.191406 "/>
<path fill-rule="nonzero" fill="rgb(0%, 0%, 0%)" fill-opacity="1" d="M 337.460938 655.523438 L 262.628906 658.179688 L 276.378906 651.742188 C 282.671875 648.789062 288.933594 646.273438 295.730469 645.492188 C 306.9375 644.207031 324.730469 644.371094 345.574219 652.574219 C 345.574219 652.574219 345.917969 655.234375 337.460938 655.523438 M 214.507812 666.855469 C 222.644531 664.503906 237.328125 662.292969 263.640625 662.632812 C 317.476562 663.328125 378.789062 663.648438 378.789062 663.648438 L 376.613281 658.105469 L 369.558594 657.480469 C 369.558594 657.480469 327.460938 634.160156 286.492188 644.234375 C 286.492188 644.234375 275.488281 646.316406 255.589844 657.980469 C 255.589844 657.980469 230.085938 658.699219 215.050781 664.203125 "/>
<path fill-rule="nonzero" fill="rgb(98.799133%, 82.398987%, 4.299927%)" fill-opacity="1" d="M 221.945312 662.148438 L 219.527344 662.777344 C 219.527344 662.777344 222.929688 654.726562 227.105469 648.191406 "/>
<path fill-rule="nonzero" fill="rgb(0%, 0%, 0%)" fill-opacity="1" d="M 368.347656 650.753906 L 372.332031 657.726562 L 376.613281 658.105469 L 373.179688 650.753906 Z M 368.347656 650.753906 "/>
<path fill-rule="nonzero" fill="rgb(0%, 0%, 0%)" fill-opacity="1" d="M 217.898438 656.585938 C 217.898438 656.585938 216.011719 661.023438 215.054688 664.214844 C 214.71875 665.324219 214.5 666.285156 214.507812 666.855469 L 215.394531 664.085938 "/>
<path fill-rule="nonzero" fill="rgb(0%, 0%, 0%)" fill-opacity="1" d="M 214.507812 666.855469 C 214.507812 666.855469 226.832031 633.824219 255.277344 621.433594 L 255.277344 618.4375 C 255.277344 618.4375 224.496094 630.03125 214.507812 666.855469 "/>
<path fill-rule="nonzero" fill="rgb(0%, 0%, 0%)" fill-opacity="1" d="M 379.535156 638.101562 C 379.53125 636.5 378.25 635.203125 376.664062 635.175781 C 375.019531 635.152344 373.703125 636.476562 373.695312 638.09375 C 373.6875 639.699219 375.003906 641.019531 376.601562 641.023438 C 378.21875 641.027344 379.53125 639.71875 379.535156 638.101562 M 376.613281 641.535156 C 374.714844 641.53125 373.179688 639.992188 373.1875 638.09375 C 373.191406 636.199219 374.726562 634.664062 376.613281 634.667969 C 378.519531 634.671875 380.050781 636.207031 380.042969 638.117188 C 380.039062 640.003906 378.5 641.535156 376.613281 641.535156 "/>
<path fill-rule="nonzero" fill="rgb(0%, 0%, 0%)" fill-opacity="1" d="M 376.015625 637.359375 L 376.015625 637.835938 C 376.015625 637.859375 376.011719 637.886719 376.046875 637.886719 C 376.242188 637.886719 376.441406 637.894531 376.636719 637.847656 C 376.851562 637.796875 377.003906 637.683594 377.039062 637.449219 C 377.058594 637.300781 377.050781 637.15625 376.949219 637.03125 C 376.867188 636.933594 376.753906 636.894531 376.632812 636.867188 C 376.445312 636.824219 376.257812 636.832031 376.066406 636.832031 C 376.027344 636.832031 376.015625 636.839844 376.015625 636.882812 C 376.015625 637.042969 376.015625 637.199219 376.015625 637.359375 M 378.285156 640.039062 L 378.222656 640.039062 C 377.957031 640.039062 377.691406 640.039062 377.421875 640.039062 C 377.390625 640.039062 377.375 640.027344 377.359375 640 C 377.074219 639.542969 376.785156 639.085938 376.503906 638.625 C 376.472656 638.570312 376.4375 638.542969 376.367188 638.546875 C 376.269531 638.554688 376.175781 638.546875 376.078125 638.546875 C 376.015625 638.546875 376.015625 638.546875 376.015625 638.609375 L 376.015625 639.96875 C 376.015625 640.039062 376.015625 640.039062 375.949219 640.039062 C 375.714844 640.039062 375.484375 640.039062 375.25 640.039062 C 375.207031 640.039062 375.199219 640.027344 375.199219 639.984375 C 375.199219 638.726562 375.199219 637.46875 375.199219 636.214844 C 375.199219 636.183594 375.195312 636.164062 375.242188 636.164062 C 375.648438 636.164062 376.054688 636.164062 376.464844 636.167969 C 376.71875 636.171875 376.96875 636.207031 377.207031 636.296875 C 377.511719 636.410156 377.730469 636.609375 377.816406 636.929688 C 377.914062 637.289062 377.898438 637.636719 377.671875 637.949219 C 377.550781 638.117188 377.390625 638.234375 377.203125 638.324219 C 377.191406 638.332031 377.175781 638.339844 377.148438 638.351562 C 377.527344 638.914062 377.902344 639.472656 378.285156 640.039062 "/>
<path fill-rule="nonzero" fill="rgb(0%, 0%, 0%)" fill-opacity="1" d="M 209.691406 370.425781 C 209.691406 370.425781 215.96875 368.585938 218.0625 368.457031 L 217.875 373.875 C 217.875 375.488281 217.796875 377.101562 217.714844 378.480469 C 218.738281 377.535156 220.15625 376.195312 222.554688 374.191406 L 231.019531 366.964844 L 243.71875 366.296875 L 231.878906 375.332031 C 228.378906 377.96875 226.765625 379.148438 225.070312 380.171875 C 226.566406 381.191406 228.613281 382.648438 231.996094 385.402344 L 242.890625 394.09375 L 230.578125 394.09375 L 222.632812 387.171875 C 219.917969 384.8125 218.660156 383.671875 217.753906 382.765625 C 217.796875 383.984375 217.875 385.285156 217.875 386.542969 L 217.875 394.09375 L 209.691406 394.09375 L 209.691406 370.425781 L 214.542969 369.273438 "/>
<path fill-rule="nonzero" fill="rgb(98.799133%, 82.699585%, 2.69928%)" fill-opacity="1" d="M 258.757812 393.78125 L 263.675781 386.828125 L 270.285156 386.828125 C 271.859375 386.828125 273.707031 386.828125 274.964844 386.910156 C 274.257812 385.941406 273.15625 384.28125 272.292969 382.988281 L 267.570312 375.835938 L 255.21875 393.78125 L 245.582031 393.78125 L 262.457031 369.328125 C 263.558594 367.753906 265.167969 366.296875 267.726562 366.296875 C 270.164062 366.296875 271.777344 367.628906 272.921875 369.328125 L 289.363281 393.78125 Z M 258.757812 393.78125 "/>
<path fill-rule="nonzero" fill="rgb(92.89856%, 11.799622%, 14.099121%)" fill-opacity="1" d="M 329.046875 393.78125 L 318.152344 393.78125 L 312.289062 386.628906 L 299.78125 386.628906 L 299.78125 393.78125 L 291.636719 393.78125 L 291.636719 379.957031 L 314.53125 379.957031 C 317.050781 379.957031 319.015625 378.785156 319.015625 376.925781 C 319.015625 374.824219 317.324219 373.773438 314.53125 373.773438 L 291.636719 373.773438 L 296.949219 366.742188 L 313.863281 366.742188 C 319.84375 366.742188 327.394531 368.683594 327.394531 376.402344 C 327.394531 380.605469 324.839844 384.082031 320.511719 384.972656 C 321.414062 385.65625 322.398438 386.628906 324.207031 388.527344 Z M 329.046875 393.78125 "/>
<path fill-rule="nonzero" fill="rgb(0%, 0%, 0%)" fill-opacity="1" d="M 360.753906 393.78125 L 335.8125 393.78125 C 333.765625 393.78125 332.039062 392.570312 332.039062 390.386719 C 332.039062 389.132812 332.707031 387.921875 333.808594 387.03125 L 343.40625 379.269531 C 347.773438 375.675781 349.660156 374.339844 350.644531 373.613281 C 349.226562 373.734375 346.828125 373.773438 341.597656 373.773438 L 331.054688 373.773438 L 336.246094 366.742188 L 360.519531 366.742188 C 362.5625 366.742188 364.292969 367.953125 364.292969 370.136719 C 364.292969 371.351562 363.625 372.601562 362.523438 373.453125 L 352.808594 381.371094 C 348.480469 384.890625 346.671875 386.265625 345.648438 386.992188 C 346.945312 386.910156 351.980469 386.828125 356.113281 386.828125 L 365.671875 386.828125 Z M 360.753906 393.78125 "/>
<path fill-rule="nonzero" fill="rgb(0%, 0%, 0%)" fill-opacity="1" d="M 377.011719 393.78125 L 368.871094 393.78125 L 368.871094 366.742188 L 377.011719 366.742188 Z M 377.011719 393.78125 "/>
<path fill-rule="nonzero" fill="rgb(0%, 0%, 0%)" fill-opacity="1" d="M 392.101562 357.730469 C 392.097656 356.128906 390.816406 354.832031 389.230469 354.804688 C 387.585938 354.78125 386.269531 356.105469 386.261719 357.722656 C 386.253906 359.324219 387.570312 360.648438 389.167969 360.652344 C 390.785156 360.65625 392.097656 359.347656 392.101562 357.730469 M 389.179688 361.160156 C 387.28125 361.160156 385.746094 359.621094 385.753906 357.722656 C 385.757812 355.828125 387.292969 354.292969 389.179688 354.292969 C 391.085938 354.296875 392.617188 355.835938 392.613281 357.746094 C 392.605469 359.628906 391.066406 361.164062 389.179688 361.160156 "/>
<path fill-rule="nonzero" fill="rgb(0%, 0%, 0%)" fill-opacity="1" d="M 388.582031 356.984375 L 388.582031 357.464844 C 388.582031 357.488281 388.578125 357.515625 388.613281 357.515625 C 388.8125 357.515625 389.007812 357.523438 389.203125 357.476562 C 389.417969 357.425781 389.570312 357.308594 389.605469 357.078125 C 389.625 356.929688 389.617188 356.785156 389.515625 356.660156 C 389.433594 356.5625 389.320312 356.519531 389.199219 356.492188 C 389.011719 356.453125 388.824219 356.460938 388.632812 356.457031 C 388.59375 356.457031 388.582031 356.46875 388.582031 356.511719 C 388.582031 356.667969 388.582031 356.828125 388.582031 356.984375 M 390.851562 359.667969 L 390.789062 359.667969 C 390.523438 359.667969 390.257812 359.664062 389.992188 359.667969 C 389.957031 359.667969 389.9375 359.65625 389.925781 359.628906 C 389.640625 359.171875 389.351562 358.710938 389.070312 358.253906 C 389.035156 358.195312 389.003906 358.171875 388.933594 358.175781 C 388.835938 358.179688 388.738281 358.175781 388.644531 358.175781 C 388.582031 358.175781 388.582031 358.175781 388.582031 358.234375 L 388.582031 359.597656 C 388.582031 359.667969 388.582031 359.667969 388.515625 359.667969 C 388.28125 359.667969 388.050781 359.664062 387.816406 359.667969 C 387.773438 359.667969 387.765625 359.652344 387.765625 359.613281 C 387.765625 358.355469 387.765625 357.097656 387.765625 355.84375 C 387.765625 355.8125 387.761719 355.789062 387.808594 355.789062 C 388.214844 355.792969 388.621094 355.789062 389.03125 355.792969 C 389.285156 355.796875 389.535156 355.832031 389.773438 355.921875 C 390.078125 356.039062 390.296875 356.238281 390.386719 356.558594 C 390.480469 356.917969 390.464844 357.261719 390.238281 357.578125 C 390.117188 357.742188 389.957031 357.863281 389.769531 357.953125 L 389.714844 357.980469 C 390.09375 358.539062 390.472656 359.101562 390.851562 359.667969 "/>
<path fill-rule="nonzero" fill="rgb(0%, 0%, 0%)" fill-opacity="1" d="M 389.160156 160.816406 C 389.15625 159.214844 387.875 157.917969 386.289062 157.894531 C 384.644531 157.867188 383.328125 159.191406 383.320312 160.808594 C 383.3125 162.414062 384.625 163.734375 386.230469 163.738281 C 387.84375 163.742188 389.15625 162.433594 389.160156 160.816406 M 386.238281 164.25 C 384.339844 164.246094 382.808594 162.707031 382.8125 160.808594 C 382.816406 158.914062 384.351562 157.378906 386.238281 157.382812 C 388.148438 157.386719 389.675781 158.921875 389.671875 160.832031 C 389.664062 162.71875 388.125 164.25 386.238281 164.25 "/>
<path fill-rule="nonzero" fill="rgb(0%, 0%, 0%)" fill-opacity="1" d="M 385.640625 160.074219 C 385.640625 160.234375 385.640625 160.394531 385.640625 160.554688 C 385.640625 160.578125 385.636719 160.601562 385.671875 160.601562 C 385.871094 160.601562 386.066406 160.609375 386.261719 160.566406 C 386.476562 160.511719 386.632812 160.398438 386.664062 160.164062 C 386.683594 160.015625 386.675781 159.871094 386.574219 159.75 C 386.492188 159.648438 386.378906 159.609375 386.257812 159.582031 C 386.070312 159.539062 385.882812 159.546875 385.691406 159.546875 C 385.652344 159.546875 385.640625 159.554688 385.640625 159.597656 C 385.640625 159.757812 385.640625 159.914062 385.640625 160.074219 M 387.910156 162.753906 L 387.847656 162.753906 C 387.582031 162.753906 387.316406 162.753906 387.046875 162.753906 C 387.015625 162.753906 387 162.742188 386.984375 162.71875 C 386.699219 162.257812 386.414062 161.800781 386.128906 161.339844 C 386.097656 161.285156 386.0625 161.257812 385.992188 161.261719 C 385.898438 161.269531 385.800781 161.261719 385.703125 161.261719 C 385.640625 161.261719 385.640625 161.261719 385.640625 161.324219 L 385.640625 162.6875 C 385.640625 162.753906 385.640625 162.753906 385.574219 162.753906 C 385.339844 162.753906 385.109375 162.753906 384.875 162.753906 C 384.832031 162.753906 384.824219 162.742188 384.824219 162.699219 C 384.824219 161.441406 384.824219 160.1875 384.824219 158.929688 C 384.824219 158.902344 384.820312 158.878906 384.863281 158.878906 C 385.273438 158.878906 385.679688 158.878906 386.089844 158.882812 C 386.34375 158.886719 386.59375 158.921875 386.832031 159.011719 C 387.136719 159.125 387.355469 159.324219 387.441406 159.644531 C 387.539062 160.003906 387.523438 160.351562 387.296875 160.664062 C 387.175781 160.832031 387.015625 160.949219 386.828125 161.039062 C 386.816406 161.046875 386.800781 161.054688 386.777344 161.066406 C 387.152344 161.628906 387.53125 162.1875 387.910156 162.753906 "/>
<path fill-rule="nonzero" fill="rgb(0%, 0%, 0%)" fill-opacity="1" d="M 213.40625 167.46875 C 213.40625 167.46875 219.679688 165.628906 221.777344 165.5 L 221.585938 170.921875 C 221.585938 172.535156 221.507812 174.144531 221.429688 175.523438 C 222.453125 174.578125 223.871094 173.242188 226.269531 171.234375 L 234.734375 164.011719 L 247.429688 163.339844 L 235.59375 172.375 C 232.089844 175.011719 230.476562 176.191406 228.785156 177.214844 C 230.28125 178.238281 232.328125 179.691406 235.710938 182.445312 L 246.605469 191.140625 L 234.292969 191.140625 L 226.347656 184.214844 C 223.632812 181.855469 222.375 180.714844 221.46875 179.8125 C 221.507812 181.03125 221.585938 182.328125 221.585938 183.585938 L 221.585938 191.140625 L 213.40625 191.140625 L 213.40625 167.46875 L 218.257812 166.316406 "/>
<path fill-rule="nonzero" fill="rgb(0%, 0%, 0%)" fill-opacity="1" d="M 262.472656 190.824219 L 267.390625 183.875 L 273.996094 183.875 C 275.570312 183.875 277.417969 183.875 278.679688 183.957031 C 277.972656 182.984375 276.867188 181.328125 276.003906 180.035156 L 271.285156 172.878906 L 258.933594 190.824219 L 249.292969 190.824219 L 266.171875 166.375 C 267.273438 164.796875 268.882812 163.339844 271.441406 163.339844 C 273.878906 163.339844 275.492188 164.675781 276.632812 166.375 L 293.078125 190.824219 Z M 262.472656 190.824219 "/>
<path fill-rule="nonzero" fill="rgb(0%, 0%, 0%)" fill-opacity="1" d="M 332.761719 190.824219 L 321.867188 190.824219 L 316.003906 183.671875 L 303.496094 183.671875 L 303.496094 190.824219 L 295.351562 190.824219 L 295.351562 177.003906 L 318.246094 177.003906 C 320.765625 177.003906 322.730469 175.832031 322.730469 173.972656 C 322.730469 171.871094 321.039062 170.816406 318.246094 170.816406 L 295.351562 170.816406 L 300.664062 163.785156 L 317.578125 163.785156 C 323.554688 163.785156 331.109375 165.726562 331.109375 173.445312 C 331.109375 177.648438 328.550781 181.125 324.226562 182.015625 C 325.128906 182.703125 326.113281 183.671875 327.921875 185.574219 Z M 332.761719 190.824219 "/>
<path fill-rule="nonzero" fill="rgb(0%, 0%, 0%)" fill-opacity="1" d="M 364.46875 190.824219 L 339.527344 190.824219 C 337.480469 190.824219 335.75 189.613281 335.75 187.429688 C 335.75 186.175781 336.417969 184.964844 337.519531 184.078125 L 347.121094 176.316406 C 351.488281 172.71875 353.375 171.382812 354.355469 170.65625 C 352.941406 170.777344 350.542969 170.816406 345.308594 170.816406 L 334.769531 170.816406 L 339.960938 163.785156 L 364.230469 163.785156 C 366.277344 163.785156 368.007812 165 368.007812 167.183594 C 368.007812 168.394531 367.339844 169.648438 366.238281 170.496094 L 356.519531 178.417969 C 352.195312 181.933594 350.382812 183.308594 349.363281 184.035156 C 350.660156 183.957031 355.695312 183.875 359.824219 183.875 L 369.382812 183.875 Z M 364.46875 190.824219 "/>
<path fill-rule="nonzero" fill="rgb(0%, 0%, 0%)" fill-opacity="1" d="M 380.726562 190.824219 L 372.582031 190.824219 L 372.582031 163.785156 L 380.726562 163.785156 Z M 380.726562 190.824219 "/>
<path fill-rule="nonzero" fill="rgb(0%, 0%, 0%)" fill-opacity="1" d="M 239.652344 155.734375 L 228.183594 157.183594 C 228.183594 157.183594 246.167969 130.023438 278.886719 128.574219 C 278.886719 128.574219 296.390625 127.003906 315.222656 135.9375 C 315.222656 135.9375 269.953125 115.175781 234.460938 153.804688 Z M 239.652344 155.734375 "/>
<path fill-rule="nonzero" fill="rgb(0%, 0%, 0%)" fill-opacity="1" d="M 373.410156 150.117188 L 368.582031 150.117188 C 368.582031 150.117188 343.46875 107.140625 284.316406 112.8125 C 284.316406 112.8125 230.355469 117.050781 215.265625 164.1875 C 215.265625 164.1875 227.457031 108.828125 300.375 108.710938 C 300.375 108.710938 351.078125 107.984375 373.410156 150.117188 "/>
<path fill-rule="nonzero" fill="rgb(92.89856%, 11.799622%, 14.099121%)" fill-opacity="1" d="M 332.636719 123.253906 C 332.636719 123.253906 353.464844 129.925781 369.792969 156.84375 C 369.792969 156.84375 343.140625 147.789062 338.433594 146.945312 C 333.726562 146.101562 341.871094 146.351562 321.136719 135.238281 "/>
<path fill-rule="nonzero" fill="rgb(92.89856%, 11.799622%, 14.099121%)" fill-opacity="1" d="M 315.222656 132.101562 C 315.222656 132.101562 302.910156 127.753906 296.992188 127.515625 L 301.097656 115.082031 C 301.097656 115.082031 319.148438 117.097656 326.691406 120.996094 Z M 315.222656 132.101562 "/>
<path fill-rule="nonzero" fill="rgb(92.89856%, 11.799622%, 14.099121%)" fill-opacity="1" d="M 294.792969 114.683594 L 291.320312 126.910156 C 291.320312 126.910156 286.128906 126.066406 273.332031 126.910156 L 272.246094 117.691406 C 272.246094 117.691406 279.90625 114.683594 294.792969 114.683594 "/>
<path fill-rule="nonzero" fill="rgb(98.799133%, 82.699585%, 2.69928%)" fill-opacity="1" d="M 265.859375 119.421875 L 267.78125 128.238281 C 267.78125 128.238281 261.503906 128.90625 251.601562 133.523438 L 247.5 127.636719 C 247.5 127.636719 255.246094 121.972656 265.859375 119.421875 "/>
<path fill-rule="nonzero" fill="rgb(98.799133%, 82.398987%, 4.299927%)" fill-opacity="1" d="M 243.03125 131.390625 L 246.53125 136.578125 C 246.53125 136.578125 239.289062 139.722656 234.582031 145.75 L 229.875 143.207031 C 229.875 143.207031 233.617188 137.078125 243.03125 131.390625 "/>
<path fill-rule="nonzero" fill="rgb(98.799133%, 82.398987%, 4.299927%)" fill-opacity="1" d="M 227.339844 147.554688 L 229.875 149.363281 C 229.875 149.363281 225.769531 154.203125 222.269531 161.261719 L 220.214844 161.261719 C 220.214844 161.261719 223.160156 154.089844 227.339844 147.554688 "/>
<path fill-rule="nonzero" fill="rgb(0%, 0%, 0%)" fill-opacity="1" d="M 337.695312 154.886719 L 262.863281 157.542969 L 276.613281 151.105469 C 282.902344 148.148438 289.167969 145.636719 295.960938 144.855469 C 307.167969 143.570312 324.960938 143.734375 345.808594 151.9375 C 345.808594 151.9375 346.148438 154.597656 337.695312 154.886719 M 378.839844 157.644531 L 369.792969 156.84375 C 369.792969 156.84375 327.691406 133.523438 286.722656 143.597656 C 286.722656 143.597656 275.71875 145.679688 255.824219 157.34375 C 255.824219 157.34375 209.332031 158.648438 204.882812 171.289062 C 204.882812 171.289062 210.035156 161.300781 263.875 161.996094 C 317.710938 162.691406 380.726562 162.96875 380.726562 162.96875 Z M 378.839844 157.644531 "/>
<path fill-rule="nonzero" fill="rgb(98.799133%, 82.398987%, 4.299927%)" fill-opacity="1" d="M 222.175781 161.507812 L 219.757812 162.140625 C 219.757812 162.140625 223.160156 154.089844 227.339844 147.554688 "/>
<g fill="rgb(0%, 0%, 0%)" fill-opacity="1">
<use xlink:href="#k_glyph-0-0" x="256.226466" y="222.353436"/>
</g>
<g fill="rgb(0%, 0%, 0%)" fill-opacity="1">
<use xlink:href="#k_glyph-0-1" x="261.42814" y="222.353436"/>
<use xlink:href="#k_glyph-0-2" x="269.686096" y="222.353436"/>
<use xlink:href="#k_glyph-0-1" x="277.428679" y="222.353436"/>
<use xlink:href="#k_glyph-0-3" x="285.686636" y="222.353436"/>
<use xlink:href="#k_glyph-0-4" x="288.227545" y="222.353436"/>
<use xlink:href="#k_glyph-0-5" x="294.60379" y="222.353436"/>
<use xlink:href="#k_glyph-0-6" x="301.051948" y="222.353436"/>
</g>
<g fill="rgb(0%, 0%, 0%)" fill-opacity="1">
<use xlink:href="#k_glyph-0-7" x="303.916464" y="222.353436"/>
</g>
<g fill="rgb(0%, 0%, 0%)" fill-opacity="1">
<use xlink:href="#k_glyph-0-8" x="313.444875" y="222.353436"/>
<use xlink:href="#k_glyph-0-5" x="320.779954" y="222.353436"/>
<use xlink:href="#k_glyph-0-6" x="327.228111" y="222.353436"/>
<use xlink:href="#k_glyph-0-1" x="330.092627" y="222.353436"/>
</g>
<g fill="rgb(0%, 0%, 0%)" fill-opacity="1">
<use xlink:href="#k_glyph-0-0" x="247.728802" y="469.864402"/>
</g>
<g fill="rgb(0%, 0%, 0%)" fill-opacity="1">
<use xlink:href="#k_glyph-0-1" x="252.930475" y="469.864402"/>
<use xlink:href="#k_glyph-0-2" x="261.188432" y="469.864402"/>
<use xlink:href="#k_glyph-0-1" x="268.931015" y="469.864402"/>
<use xlink:href="#k_glyph-0-3" x="277.188971" y="469.864402"/>
<use xlink:href="#k_glyph-0-9" x="279.729881" y="469.864402"/>
<use xlink:href="#k_glyph-0-10" x="285.638694" y="469.864402"/>
<use xlink:href="#k_glyph-0-11" x="291.535522" y="469.864402"/>
<use xlink:href="#k_glyph-0-12" x="298.487067" y="469.864402"/>
<use xlink:href="#k_glyph-0-13" x="306.241636" y="469.864402"/>
</g>
<g fill="rgb(0%, 0%, 0%)" fill-opacity="1">
<use xlink:href="#k_glyph-0-14" x="314.128044" y="469.864402"/>
</g>
<g fill="rgb(0%, 0%, 0%)" fill-opacity="1">
<use xlink:href="#k_glyph-0-8" x="321.954525" y="469.864402"/>
<use xlink:href="#k_glyph-0-5" x="329.289604" y="469.864402"/>
<use xlink:href="#k_glyph-0-6" x="335.737761" y="469.864402"/>
<use xlink:href="#k_glyph-0-1" x="338.602278" y="469.864402"/>
</g>
<g fill="rgb(0%, 0%, 0%)" fill-opacity="1">
<use xlink:href="#k_glyph-0-0" x="263.729341" y="730.319625"/>
</g>
<g fill="rgb(0%, 0%, 0%)" fill-opacity="1">
<use xlink:href="#k_glyph-0-1" x="268.931015" y="730.319625"/>
<use xlink:href="#k_glyph-0-2" x="277.188971" y="730.319625"/>
<use xlink:href="#k_glyph-0-1" x="284.931554" y="730.319625"/>
</g>
<g fill="rgb(0%, 0%, 0%)" fill-opacity="1">
<use xlink:href="#k_glyph-0-7" x="293.18951" y="730.319625"/>
</g>
<g fill="rgb(0%, 0%, 0%)" fill-opacity="1">
<use xlink:href="#k_glyph-0-15" x="302.717922" y="730.319625"/>
</g>
<g fill="rgb(0%, 0%, 0%)" fill-opacity="1">
<use xlink:href="#k_glyph-0-5" x="310.053" y="730.319625"/>
</g>
<g fill="rgb(0%, 0%, 0%)" fill-opacity="1">
<use xlink:href="#k_glyph-0-11" x="316.537114" y="730.319625"/>
</g>
<g fill="rgb(0%, 0%, 0%)" fill-opacity="1">
<use xlink:href="#k_glyph-0-15" x="323.536601" y="730.319625"/>
</g>
</svg>
  <line x1="212.94" y1="14" x2="212.94" y2="58" stroke="#8A8A8A" stroke-width="1.25" stroke-linecap="round"/>
  <svg x="227.93617021276597" y="11.5" width="60.361398963730565" height="49.0" viewBox="247.32 158.4 342.36 277.92" preserveAspectRatio="none" overflow="hidden"><defs>
<clipPath id="w_clip-0">
<path clip-rule="nonzero" d="M 412 161 L 527 161 L 527 290 L 412 290 Z M 412 161 "/>
</clipPath>
<clipPath id="w_clip-1">
<path clip-rule="nonzero" d="M 460.316406 142.898438 L 401.816406 265.988281 L 403.808594 292.640625 L 460.101562 298.867188 L 532.335938 292.640625 L 550.519531 210.195312 L 562.476562 142.898438 Z M 460.316406 142.898438 "/>
</clipPath>
<clipPath id="w_clip-2">
<path clip-rule="nonzero" d="M 401 142 L 563 142 L 563 299 L 401 299 Z M 401 142 "/>
</clipPath>
<clipPath id="w_clip-3">
<path clip-rule="nonzero" d="M 460.316406 142.898438 L 401.816406 265.988281 L 403.808594 292.640625 L 460.101562 298.867188 L 532.335938 292.640625 L 550.519531 210.195312 L 562.476562 142.898438 Z M 460.316406 142.898438 "/>
</clipPath>
<clipPath id="w_clip-4">
<path clip-rule="nonzero" d="M 444 301 L 586 301 L 586 433 L 444 433 Z M 444 301 "/>
</clipPath>
<clipPath id="w_clip-5">
<path clip-rule="nonzero" d="M 513.785156 281.339844 L 446.960938 422.382812 L 432.132812 445.96875 L 482.148438 470.378906 L 612.21875 451.699219 L 614.710938 425.296875 L 621.433594 280.078125 Z M 513.785156 281.339844 "/>
</clipPath>
<clipPath id="w_clip-6">
<path clip-rule="nonzero" d="M 432 280 L 622 280 L 622 471 L 432 471 Z M 432 280 "/>
</clipPath>
<clipPath id="w_clip-7">
<path clip-rule="nonzero" d="M 513.785156 281.339844 L 446.960938 422.382812 L 432.132812 445.96875 L 482.148438 470.378906 L 612.21875 451.699219 L 614.710938 425.296875 L 621.433594 280.078125 Z M 513.785156 281.339844 "/>
</clipPath>
</defs>
<path fill-rule="nonzero" fill="rgb(59.999084%, 17.999268%, 71.798706%)" fill-opacity="1" stroke-width="6.796" stroke-linecap="butt" stroke-linejoin="miter" stroke="rgb(59.999084%, 17.999268%, 71.798706%)" stroke-opacity="1" stroke-miterlimit="10" d="M -0.000120775 0.000741786 L -6.32812 127.925672 L 32.860109 127.925672 C 32.500297 99.719533 33.415471 60.507837 31.115803 36.005417 L 31.487348 36.005417 C 41.585552 62.021395 58.402856 99.422297 71.496888 127.925672 L 106.977488 127.925672 C 107.732311 100.548665 109.621325 61.579452 109.05423 37.03401 L 109.547016 37.03401 C 118.733957 64.223288 135.046742 102.429857 145.794173 127.925672 L 185.064533 127.925672 L 122.531539 0.000741786 L 80.722939 0.000741786 C 79.424486 30.400952 78.454558 64.716074 78.818281 84.564404 L 78.446736 84.564404 C 70.812462 63.859565 54.272839 27.38557 41.565997 0.000741786 Z M -0.000120775 0.000741786 " transform="matrix(0.998785, 0, 0, -0.998785, 257.453246, 289.485116)"/>
<path fill-rule="nonzero" fill="rgb(0%, 0%, 0%)" fill-opacity="1" stroke-width="6.796" stroke-linecap="butt" stroke-linejoin="miter" stroke="rgb(0%, 0%, 0%)" stroke-opacity="1" stroke-miterlimit="10" d="M 0.00114119 -0.00120167 L -5.521192 126.324129 L 12.004003 126.324129 C 12.664962 89.306505 14.749526 31.016947 13.724844 18.501744 L 13.90475 18.501744 C 18.797412 33.035023 49.901602 95.239493 64.223688 126.324129 L 80.689002 126.324129 C 81.979632 98.86108 84.955904 34.325654 84.146327 19.260478 L 84.330144 19.260478 C 89.782079 34.341298 114.937637 85.684918 133.323252 126.324129 L 151.059642 126.324129 L 89.105476 -0.00120167 L 70.340493 -0.00120167 C 69.280612 27.281941 66.668063 85.602787 67.149116 102.666484 L 66.965299 102.666484 C 59.956786 83.107568 31.961841 27.598732 18.664438 -0.00120167 Z M 0.00114119 -0.00120167 " transform="matrix(0.998785, 0, 0, -0.998785, 343.901204, 427.412862)"/>
<g clip-path="url(#w_clip-0)">
<g clip-path="url(#w_clip-1)">
<path fill-rule="nonzero" fill="rgb(0%, 0%, 0%)" fill-opacity="1" d="M 448.734375 161.714844 L 432.203125 239.117188 C 426.617188 265.261719 438.542969 275.039062 456.84375 275.039062 C 478.460938 275.039062 486.421875 265.507812 491.90625 239.695312 L 508.519531 161.714844 L 526.289062 161.714844 L 509.34375 241.179688 C 501.910156 275.484375 488.75 289.503906 455.191406 289.503906 C 426.375 289.503906 406.886719 275.070312 414.679688 238.191406 L 431.046875 161.714844 Z M 448.734375 161.714844 "/>
</g>
</g>
<g clip-path="url(#w_clip-2)">
<g clip-path="url(#w_clip-3)">
<path fill="none" stroke-width="6.796" stroke-linecap="butt" stroke-linejoin="miter" stroke="rgb(0%, 0%, 0%)" stroke-opacity="1" stroke-miterlimit="10" d="M 0.00087362 -0.00172822 L -16.550482 -77.498212 C -22.143214 -103.674541 -10.202928 -113.463777 8.120112 -113.463777 C 29.763591 -113.463777 37.734211 -103.920934 43.225256 -78.07704 L 59.858743 -0.00172822 L 77.649886 -0.00172822 L 60.683964 -79.56322 C 53.24133 -113.909631 40.065167 -127.946213 6.465758 -127.946213 C -22.385696 -127.946213 -41.89768 -113.495065 -34.095233 -76.571305 L -17.708139 -0.00172822 Z M 0.00087362 -0.00172822 " transform="matrix(0.998785, 0, 0, -0.998785, 448.733502, 161.713118)"/>
</g>
</g>
<g clip-path="url(#w_clip-4)">
<g clip-path="url(#w_clip-5)">
<path fill-rule="nonzero" fill="rgb(59.999084%, 17.999268%, 71.798706%)" fill-opacity="1" d="M 501.785156 301.550781 L 485.777344 376.292969 C 481.03125 398.042969 491.382812 403.789062 503.511719 403.789062 C 517.871094 403.789062 525.273438 398.5625 529.929688 376.292969 L 545.9375 301.550781 L 585.140625 301.550781 L 568.839844 377.570312 C 560.453125 416.949219 543.949219 432.242188 499.199219 432.242188 C 463.847656 432.242188 437.414062 418.679688 446.886719 374.476562 L 462.464844 301.550781 Z M 501.785156 301.550781 "/>
</g>
</g>
<g clip-path="url(#w_clip-6)">
<g clip-path="url(#w_clip-7)">
<path fill="none" stroke-width="6.796" stroke-linecap="butt" stroke-linejoin="miter" stroke="rgb(59.999084%, 17.999268%, 71.798706%)" stroke-opacity="1" stroke-miterlimit="10" d="M 0.00187749 0.000959859 L -16.025404 -74.832132 C -20.777271 -96.608586 -10.413118 -102.361668 1.73054 -102.361668 C 16.107379 -102.361668 23.518726 -97.128749 28.180639 -74.832132 L 44.207921 0.000959859 L 83.458727 0.000959859 L 67.13812 -76.11103 C 58.741201 -115.53783 42.217222 -130.849399 -2.587205 -130.849399 C -37.981764 -130.849399 -64.447507 -117.270404 -54.96333 -73.013517 L -39.366258 0.000959859 Z M 0.00187749 0.000959859 " transform="matrix(0.998785, 0, 0, -0.998785, 501.783281, 301.55174)"/>
</g>
</g>
</svg>
  </svg>
